<?xml version="1.0" standalone="no"?><!DOCTYPE svg PUBLIC "-//W3C//DTD SVG 1.1//EN" "http://www.w3.org/Graphics/SVG/1.1/DTD/svg11.dtd"><svg t="1658553989140" class="icon" viewBox="0 0 1024 1024" version="1.1" xmlns="http://www.w3.org/2000/svg" p-id="20971" xmlns:xlink="http://www.w3.org/1999/xlink" width="192" height="192"><defs><style type="text/css">@font-face { font-family: feedback-iconfont; src: url("//at.alicdn.com/t/font_1031158_u69w8yhxdu.woff2?t=1630033759944") format("woff2"), url("//at.alicdn.com/t/font_1031158_u69w8yhxdu.woff?t=1630033759944") format("woff"), url("//at.alicdn.com/t/font_1031158_u69w8yhxdu.ttf?t=1630033759944") format("truetype"); }
</style></defs><path d="M990.08 666.88L931.52 296A164.16 164.16 0 0 0 768 160H257.6a164.16 164.16 0 0 0-165.12 136L33.92 666.88A174.08 174.08 0 0 0 210.88 864c152.64 0 172.48-135.36 190.08-192h222.08c16.64 54.08 35.84 192 190.08 192a174.08 174.08 0 0 0 176.96-197.12zM320 480H288v32a32 32 0 0 1-64 0v-32H192a32 32 0 0 1 0-64h32v-32a32 32 0 0 1 64 0v32h32a32 32 0 0 1 0 64z m224-32h-64a32 32 0 0 1 0-64h64a32 32 0 0 1 0 64z m224-96a32 32 0 1 1-32 32 32 32 0 0 1 32-32z m-64 128a32 32 0 1 1 32-32 32 32 0 0 1-32 32z m64 64a32 32 0 1 1 32-32 32 32 0 0 1-32 32z m64-64a32 32 0 1 1 32-32 32 32 0 0 1-32 32z" fill="#ffffff" p-id="20972"></path></svg>