<?xml version="1.0" standalone="no"?><!DOCTYPE svg PUBLIC "-//W3C//DTD SVG 1.1//EN" "http://www.w3.org/Graphics/SVG/1.1/DTD/svg11.dtd"><svg t="1658553667722" class="icon" viewBox="0 0 1024 1024" version="1.1" xmlns="http://www.w3.org/2000/svg" p-id="12784" xmlns:xlink="http://www.w3.org/1999/xlink" width="192" height="192"><defs><style type="text/css">@font-face { font-family: feedback-iconfont; src: url("//at.alicdn.com/t/font_1031158_u69w8yhxdu.woff2?t=1630033759944") format("woff2"), url("//at.alicdn.com/t/font_1031158_u69w8yhxdu.woff?t=1630033759944") format("woff"), url("//at.alicdn.com/t/font_1031158_u69w8yhxdu.ttf?t=1630033759944") format("truetype"); }
</style></defs><path d="M768 170.666667l85.333333 128h-128l-85.333333-128h-85.333333l85.333333 128h-128l-85.333333-128h-85.333334l85.333334 128h-128l-85.333334-128H170.666667c-46.933333 0-84.906667 38.4-84.906667 85.333333L85.333333 768c0 46.933333 38.4 85.333333 85.333334 85.333333h682.666666c46.933333 0 85.333333-38.4 85.333334-85.333333V170.666667h-170.666667zM480 650.666667L426.666667 768l-53.333334-117.333333L256 597.333333l117.333333-53.333333L426.666667 426.666667l53.333333 117.333333L597.333333 597.333333l-117.333333 53.333334z m242.773333-141.226667L682.666667 597.333333l-40.106667-87.893333L554.666667 469.333333l87.893333-40.106666L682.666667 341.333333l40.106666 87.893334L810.666667 469.333333l-87.893334 40.106667z" fill="#ffffff" p-id="12785"></path></svg>