<?xml version="1.0" standalone="no"?><!DOCTYPE svg PUBLIC "-//W3C//DTD SVG 1.1//EN" "http://www.w3.org/Graphics/SVG/1.1/DTD/svg11.dtd"><svg t="1658553790378" class="icon" viewBox="0 0 1024 1024" version="1.1" xmlns="http://www.w3.org/2000/svg" p-id="14177" xmlns:xlink="http://www.w3.org/1999/xlink" width="192" height="192"><defs><style type="text/css">@font-face { font-family: feedback-iconfont; src: url("//at.alicdn.com/t/font_1031158_u69w8yhxdu.woff2?t=1630033759944") format("woff2"), url("//at.alicdn.com/t/font_1031158_u69w8yhxdu.woff?t=1630033759944") format("woff"), url("//at.alicdn.com/t/font_1031158_u69w8yhxdu.ttf?t=1630033759944") format("truetype"); }
</style></defs><path d="M768 160h-32V64a32 32 0 0 0-32-32H320a32 32 0 0 0-32 32v96H256a192 192 0 0 0-192 192v352a192 192 0 0 0 192 192v64a32 32 0 0 0 32 32h448a32 32 0 0 0 32-32v-64a192 192 0 0 0 192-192V352a192 192 0 0 0-192-192zM296.32 431.68a64 64 0 1 1 64 64 64 64 0 0 1-64-64zM684.16 640A217.92 217.92 0 0 1 512 716.8a217.92 217.92 0 0 1-172.16-76.8 35.84 35.84 0 1 1 56.32-44.16A148.16 148.16 0 0 0 512 645.44a148.16 148.16 0 0 0 115.84-50.24 35.84 35.84 0 0 1 56.32 44.8z m-20.16-143.68a64 64 0 1 1 64-64 64 64 0 0 1-64 63.04z" fill="#ffffff" p-id="14178"></path></svg>